<svg width="2500" height="1713" viewBox="0 0 2500 1713" fill="none" xmlns="http://www.w3.org/2000/svg">
<g clip-path="url(#clip0)">
<path d="M2491.08 800.02C2473.25 782.184 2244.35 493.836 2205.71 446.274C2164.09 398.712 2146.25 407.63 2119.5 410.602C2092.75 413.575 1804.4 464.11 1771.7 467.083C1739 473.028 1718.19 484.919 1739 514.645C1756.84 541.399 1947.09 808.938 1988.7 871.363L1230.68 1052.7L630.202 44.9661C606.421 9.29428 600.476 -2.59633 546.968 0.376323C493.46 3.34898 74.3162 39.0208 44.5897 39.0208C14.8632 41.9934 -17.836 53.884 11.8906 125.228C41.6171 196.571 517.241 1219.16 529.132 1248.89C541.023 1278.62 576.694 1326.18 656.956 1308.34C740.19 1287.53 1025.56 1213.22 1183.12 1171.6C1266.35 1320.23 1432.82 1623.44 1465.52 1668.03C1507.13 1727.49 1536.86 1715.6 1599.29 1697.76C1649.82 1682.9 2378.12 1421.3 2410.82 1406.44C2443.52 1391.58 2464.33 1382.66 2440.55 1349.96C2422.71 1326.18 2232.46 1067.56 2131.39 933.789C2199.76 915.953 2446.49 850.555 2473.25 841.637C2502.97 832.719 2508.92 817.856 2491.08 800.02V800.02ZM1114.74 1082.42C1105.83 1085.39 680.737 1186.46 659.929 1192.41C636.147 1198.35 636.147 1195.38 636.147 1186.46C630.202 1177.55 130.797 143.064 121.879 131.173C115.933 119.282 115.933 107.392 121.879 107.392C127.824 107.392 523.187 71.72 535.077 71.72C549.941 71.72 546.968 74.6926 552.913 83.6106C552.913 83.6106 1108.8 1043.78 1117.72 1058.64C1129.61 1073.5 1123.66 1079.45 1114.74 1082.42V1082.42ZM2309.75 1305.37C2315.7 1317.26 2324.61 1323.21 2300.83 1329.15C2280.02 1338.07 1584.42 1572.91 1569.56 1578.85C1554.7 1584.8 1545.78 1587.77 1527.94 1561.02C1510.11 1534.26 1284.19 1144.85 1284.19 1144.85L2024.38 951.625C2042.21 945.68 2048.16 942.707 2060.05 960.543C2071.94 981.351 2303.8 1296.45 2309.75 1305.37ZM2357.31 782.184C2339.48 785.156 2068.97 853.527 2068.97 853.527L1846.02 550.317C1840.07 541.399 1834.13 532.481 1848.99 529.508C1863.85 526.536 2116.53 481.946 2128.42 478.973C2140.31 476.001 2149.23 473.028 2164.09 493.837C2178.95 511.672 2369.2 755.43 2378.12 764.348C2387.04 773.266 2375.15 779.211 2357.31 782.184Z" fill="#252B33"/>
</g>
<defs>
<clipPath id="clip0">
<rect width="2500" height="1713" fill="white"/>
</clipPath>
</defs>
</svg>
