<svg width="145" height="100" viewBox="0 0 145 100" fill="none" xmlns="http://www.w3.org/2000/svg">
<g clip-path="url(#clip0)">
<path d="M44.1582 80.7593H40.2527C40.1146 74.1671 39.7343 67.9697 39.1124 62.1624H39.0777L33.1315 80.7593H30.1581L24.2474 62.1624H24.2135C23.775 67.738 23.4988 73.9369 23.3841 80.7593H19.8242C20.0536 72.4631 20.6302 64.6853 21.5517 57.4253H26.3922L32.0259 74.5709H32.0606L37.7291 57.4253H42.3605C43.3748 65.929 43.9741 73.7075 44.1582 80.7593V80.7593ZM61.0955 63.5435C59.5054 72.1725 57.4074 78.4424 54.8037 82.3562C52.7752 85.3688 50.5526 86.8767 48.1324 86.8767C47.4871 86.8767 46.6909 86.682 45.7476 86.2956V84.2149C46.2087 84.2814 46.7498 84.3191 47.3716 84.3191C48.5021 84.3191 49.4108 84.0082 50.1036 83.3848C50.9322 82.6256 51.3465 81.772 51.3465 80.8279C51.3465 80.1804 51.0235 78.8567 50.379 76.8523L46.0932 63.5427H49.93L53.0061 73.497C53.6974 75.7572 53.9857 77.3353 53.8702 78.2341C55.5524 73.7415 56.7274 68.8429 57.3968 63.542H61.0955V63.5435V63.5435Z" fill="#252B33"/>
<path d="M113.082 80.7594H101.988V57.4253H105.72V77.887H113.082V80.7594ZM99.0843 81.3231L94.7947 79.2062C95.175 78.8938 95.5388 78.5557 95.8663 78.164C97.6896 76.0222 98.599 72.8548 98.599 68.6595C98.599 60.9398 95.5697 57.0781 89.5089 57.0781C86.5369 57.0781 84.2185 58.0577 82.5605 60.0176C80.7387 62.1609 79.8293 65.317 79.8293 69.4897C79.8293 73.5914 80.6353 76.6003 82.2481 78.5089C83.7235 80.2379 85.9475 81.1035 88.9217 81.1035C90.0311 81.1035 91.0492 80.9677 91.9767 80.6937L97.5614 83.9449L99.0843 81.3231ZM85.1883 76.0901C84.2434 74.5702 83.771 72.1296 83.771 68.7644C83.771 62.8892 85.5558 59.9482 89.1293 59.9482C90.9971 59.9482 92.3661 60.6516 93.2415 62.0553C94.1849 63.5775 94.6596 65.9962 94.6596 69.3146C94.6596 75.2381 92.8733 78.2002 89.3021 78.2002C87.4335 78.201 86.0645 77.4999 85.1883 76.0901V76.0901ZM78.203 74.2917C78.203 76.2705 77.477 77.8938 76.0265 79.1655C74.5744 80.4318 72.6274 81.0665 70.1875 81.0665C67.9053 81.0665 65.6926 80.3375 63.5508 78.887L64.5538 76.8833C66.3967 77.8063 68.0653 78.2651 69.5633 78.2651C70.9693 78.2651 72.0681 77.9534 72.8651 77.3354C73.6613 76.715 74.136 75.8449 74.136 74.7445C74.136 73.3582 73.1692 72.1733 71.3957 71.1809C69.7603 70.2828 66.4895 68.4052 66.4895 68.4052C64.7168 67.1132 63.8293 65.7261 63.8293 63.4409C63.8293 61.5496 64.4911 60.0229 65.8156 58.8614C67.1416 57.6955 68.8524 57.1143 70.9497 57.1143C73.1156 57.1143 75.0846 57.6947 76.8581 58.8433L75.9585 60.8478C74.4416 60.2033 72.9443 59.881 71.4674 59.881C70.2712 59.881 69.3475 60.1686 68.7053 60.7459C68.0578 61.321 67.6585 62.0568 67.6585 62.9594C67.6585 64.3389 68.6457 65.5389 70.4675 66.5509C72.1247 67.4505 75.477 69.3606 75.477 69.3606C77.2951 70.6504 78.203 72.0246 78.203 74.2917" fill="#2C3035"/>
<path d="M117.768 49.6098C115.512 49.5524 113.765 49.7796 112.298 50.3999C111.875 50.569 111.202 50.569 111.143 51.104C111.372 51.3305 111.398 51.6957 111.596 52.0082C111.935 52.5719 112.524 53.3304 113.062 53.7258C113.653 54.1786 114.246 54.6269 114.868 55.0216C115.965 55.7001 117.208 56.0948 118.276 56.771C118.899 57.1642 119.518 57.6728 120.141 58.0962C120.447 58.3218 120.644 58.6879 121.041 58.829V58.743C120.842 58.4894 120.785 58.1226 120.59 57.8404L119.743 57.0238C118.925 55.925 117.909 54.9658 116.812 54.1779C115.909 53.556 113.935 52.7108 113.569 51.6708L113.512 51.6135C114.132 51.5553 114.868 51.3305 115.457 51.1576C116.417 50.9048 117.291 50.9622 118.275 50.7093C118.728 50.5961 119.177 50.4543 119.632 50.3146V50.0603C119.121 49.5524 118.758 48.8777 118.221 48.3978C116.786 47.1578 115.204 45.945 113.569 44.93C112.694 44.3647 111.568 44.001 110.636 43.5202C110.3 43.3504 109.734 43.2667 109.536 42.9844C109.031 42.3641 108.746 41.5475 108.379 40.8132C107.564 39.2638 106.772 37.5446 106.069 35.9062C105.56 34.8074 105.251 33.7101 104.631 32.6935C101.725 27.9013 98.5698 24.9988 93.7202 22.1499C92.678 21.5567 91.4381 21.3039 90.1136 20.9929L87.9982 20.8812C87.5469 20.6835 87.0948 20.1469 86.7009 19.8934C85.0919 18.8791 80.9494 16.6807 79.7661 19.5832C79.0039 21.4178 80.8936 23.2215 81.5426 24.152C82.0219 24.798 82.643 25.5331 82.978 26.2667C83.1765 26.7459 83.2324 27.2545 83.4309 27.7609C83.8822 29.0016 84.304 30.3819 84.8972 31.5396C85.2066 32.1298 85.544 32.7501 85.9394 33.2845C86.1658 33.5969 86.5598 33.735 86.6458 34.2444C86.2526 34.8059 86.2217 35.6534 85.996 36.3583C84.9817 39.5438 85.3779 43.49 86.8156 45.8311C87.2654 46.5359 88.3386 48.0876 89.774 47.4929C91.0449 46.9857 90.7634 45.379 91.1286 43.97C91.2124 43.6297 91.1573 43.4063 91.3264 43.1829V43.238C91.7196 44.0266 92.1165 44.7866 92.481 45.5775C93.3557 46.9578 94.8787 48.3962 96.1473 49.3524C96.8227 49.8626 97.3578 50.735 98.2038 51.0467V50.9622H98.148C97.9766 50.7093 97.7261 50.5961 97.5012 50.3999C96.9925 49.892 96.4295 49.2717 96.0348 48.7087C94.853 47.1291 93.807 45.3805 92.8787 43.5761C92.4244 42.7006 92.0327 41.7437 91.6667 40.8698C91.4962 40.5324 91.4962 40.0238 91.2132 39.854C90.789 40.4736 90.1709 41.0102 89.8615 41.7694C89.3249 42.9836 89.2691 44.4772 89.0699 46.0303L88.9589 46.0846C88.0608 45.859 87.7484 44.93 87.4073 44.1413C86.5628 42.1384 86.4209 38.9235 87.1537 36.6126C87.3499 36.0217 88.1989 34.1606 87.8601 33.5977C87.6903 33.0581 87.1258 32.7509 86.8164 32.326C86.4526 31.7917 86.0541 31.1155 85.8006 30.5223C85.1244 28.9443 84.784 27.1957 84.0557 25.6184C83.7154 24.8833 83.1244 24.1226 82.646 23.4456C82.1086 22.6849 81.5177 22.1491 81.0928 21.2473C80.9525 20.9371 80.7555 20.4299 80.9811 20.0926C81.0362 19.8662 81.1509 19.7817 81.3758 19.7251C81.7411 19.4164 82.7848 19.8088 83.1509 19.9786C84.1961 20.4013 85.07 20.796 85.9424 21.3876C86.3371 21.6706 86.7605 22.2065 87.2669 22.3476H87.8601C88.7604 22.5438 89.7755 22.4019 90.623 22.657C92.1165 23.137 93.4697 23.8411 94.6832 24.6011C98.3759 26.9429 101.421 30.2703 103.477 34.2444C103.814 34.8919 103.958 35.4851 104.265 36.1606C104.859 37.5431 105.594 38.9529 106.183 40.306C106.776 41.6305 107.34 42.9829 108.186 44.0832C108.608 44.6749 110.303 44.9851 111.063 45.2953C111.625 45.5481 112.501 45.773 113.008 46.0831C113.967 46.6741 114.922 47.3525 115.824 48.0023C116.273 48.3404 117.684 49.0453 117.768 49.6098V49.6098ZM89.0102 25.1097C88.621 25.1057 88.233 25.1534 87.8563 25.2516V25.3082H87.9107C88.1378 25.7588 88.5325 26.0712 88.814 26.4644C89.0412 26.9164 89.2381 27.3647 89.4608 27.816L89.5151 27.7602C89.9128 27.4787 90.1106 27.0274 90.1106 26.3504C89.9392 26.1512 89.9128 25.9565 89.7702 25.7588C89.6042 25.4765 89.2381 25.3361 89.0102 25.1097" fill="#252B33"/>
<path d="M120.455 80.7555H121.039V77.8968H120.163L119.448 79.8476L118.671 77.8968H117.828V80.7555H118.379V78.5805H118.41L119.224 80.7555H119.644L120.455 78.5805V80.7555ZM115.749 80.7555H116.367V78.3813H117.176V77.896H114.906V78.3813H115.748L115.749 80.7555Z" fill="black"/>
</g>
<defs>
<clipPath id="clip0">
<rect width="144.259" height="100" fill="white"/>
</clipPath>
</defs>
</svg>
