<svg width="105" height="100" viewBox="0 0 105 100" fill="none" xmlns="http://www.w3.org/2000/svg">
<g clip-path="url(#clip0)">
<path d="M87.8103 52.4572C87.8103 52.281 87.7616 52.1551 87.6626 52.0732C87.5527 51.9847 87.3626 51.9377 87.0978 51.9377H86.7176V52.9834H87.1762C87.6005 52.9834 87.8099 52.8072 87.8099 52.4572H87.8103ZM88.4033 54.6372H87.8804L87.5468 53.9016C87.3777 53.5327 87.1964 53.3485 86.9987 53.3485H86.7176V54.6372H86.2862V51.5705H87.1498C87.5333 51.5705 87.8216 51.6536 88.0193 51.8269C88.1871 51.9759 88.2711 52.1668 88.2711 52.4048C88.2711 52.6163 88.2027 52.7942 88.065 52.9415C87.9307 53.0904 87.7377 53.1912 87.4914 53.2432V53.2562C87.6626 53.2965 87.8334 53.4841 87.9996 53.8227L88.4033 54.6389V54.6372ZM89.3584 53.1341C89.3584 52.5306 89.1523 52.0212 88.7419 51.6171C88.3294 51.2134 87.8267 51.0107 87.2337 51.0107C86.6215 51.0107 86.112 51.2134 85.7083 51.6209C85.3042 52.0296 85.1032 52.5357 85.1032 53.1341C85.1032 53.7459 85.313 54.257 85.7285 54.6645C86.1393 55.0711 86.642 55.2726 87.2333 55.2726C87.8216 55.2726 88.3244 55.0695 88.7386 54.6574C89.1523 54.2516 89.3588 53.7421 89.3588 53.1341H89.3584ZM89.6483 53.1207C89.6483 53.798 89.4154 54.3666 88.948 54.8236C88.4805 55.2843 87.9072 55.5139 87.222 55.5139C86.5312 55.5139 85.958 55.2877 85.5023 54.8433C85.0461 54.3926 84.82 53.8265 84.82 53.1391C84.82 52.4669 85.0516 51.9024 85.5136 51.4383C85.9765 50.9755 86.5531 50.7447 87.2421 50.7447C87.9173 50.7447 88.4838 50.9658 88.9425 51.4064C89.4138 51.8588 89.6483 52.4283 89.6483 53.1207ZM24.0981 61.6733H22.6114V53.1656C22.6114 52.4937 22.6556 51.6763 22.7343 50.7111H22.7015C22.5622 51.2751 22.4347 51.6842 22.3224 51.9377L18.0019 61.6733H17.2778L12.9486 52.0082C12.8269 51.7379 12.699 51.304 12.5699 50.7107H12.538C12.583 51.2189 12.6089 52.0418 12.6089 53.1823V61.6733H11.1758V49.004H13.1367L17.0233 57.8378C17.3167 58.5034 17.506 59.0099 17.5982 59.3548H17.6597C17.913 58.6624 18.1138 58.1433 18.2662 57.8009L22.2368 49.004H24.0973V61.6729H24.0977L24.0981 61.6733ZM28.6703 61.6729H27.2258V52.6259H28.6703V61.6729ZM28.9203 49.3829C28.9203 49.649 28.8261 49.8722 28.6404 50.0548C28.4577 50.2377 28.2314 50.3296 27.9667 50.3296C27.7085 50.3296 27.4839 50.2415 27.2995 50.0653C27.1151 49.8873 27.025 49.6612 27.025 49.3829C27.025 49.1215 27.1159 48.8982 27.2995 48.7178C27.3869 48.6305 27.4911 48.5617 27.6057 48.5155C27.7204 48.4694 27.8431 48.4467 27.9667 48.4492C28.2314 48.4492 28.4577 48.5365 28.6404 48.7178C28.8265 48.8982 28.9203 49.1215 28.9203 49.3829ZM37.6987 61.2541C37.0049 61.6796 36.1767 61.8907 35.2198 61.8907C33.9228 61.8907 32.8786 61.4606 32.0807 60.6003C31.3062 59.7661 30.916 58.688 30.916 57.3674C30.916 55.8861 31.3402 54.6859 32.1946 53.7745C33.0446 52.8609 34.1875 52.4052 35.6255 52.4052C36.4115 52.4052 37.109 52.5592 37.7188 52.8643V54.351C37.0434 53.8768 36.3295 53.6419 35.5632 53.6419C34.6416 53.6419 33.8924 53.9637 33.3109 54.6058C32.7061 55.2625 32.3991 56.1408 32.3991 57.2369C32.3991 58.2894 32.679 59.1223 33.2355 59.7371C33.7937 60.3489 34.5363 60.6557 35.4731 60.6557C36.264 60.6557 37.0049 60.3959 37.6983 59.8781V61.2541H37.6987ZM44.6089 54.0938C44.3537 53.8974 43.9866 53.8022 43.5023 53.8022C42.9144 53.8022 42.4196 54.0653 42.0193 54.5965C41.5652 55.1899 41.339 56.0111 41.339 57.0602V61.6725H39.8908V52.6255H41.339V54.4912H41.3738C41.5869 53.8303 41.9152 53.3225 42.3542 52.9625C42.7646 52.6339 43.2291 52.4677 43.7402 52.4677C44.1255 52.4677 44.4121 52.5097 44.6085 52.5911V54.0938H44.6089ZM52.679 57.166C52.679 56.0078 52.4175 55.1228 51.8947 54.516C51.3869 53.9327 50.6777 53.641 49.7646 53.641C48.8644 53.641 48.1422 53.936 47.6026 54.5265C47.031 55.1559 46.7461 56.0464 46.7461 57.2012C46.7461 58.2839 47.0176 59.1332 47.5657 59.7396C48.1108 60.3498 48.8443 60.6549 49.7646 60.6549C50.7167 60.6549 51.4457 60.3452 51.9446 59.7283C52.4343 59.1249 52.679 58.2717 52.679 57.166ZM54.1637 57.1144C54.1637 58.5562 53.757 59.7145 52.9454 60.5823C52.1313 61.4539 51.0348 61.8894 49.6571 61.8894C48.3 61.8894 47.219 61.4539 46.4263 60.5823C45.65 59.7426 45.2597 58.6335 45.2597 57.2541C45.2597 55.6805 45.7004 54.4669 46.5854 53.6053C47.4033 52.8064 48.4973 52.4039 49.8686 52.4039C51.2178 52.4039 52.2719 52.8244 53.031 53.6574C53.7835 54.495 54.1637 55.6481 54.1637 57.1144ZM61.3454 59.2524C61.3454 59.9931 61.0684 60.6066 60.5136 61.0959C59.9089 61.6255 59.0776 61.8903 58.0319 61.8903C57.1754 61.8903 56.4247 61.7111 55.7877 61.3456V59.7887C56.4968 60.3653 57.2795 60.6553 58.1393 60.6553C59.2854 60.6553 59.8607 60.2331 59.8607 59.3913C59.8607 59.0376 59.7344 58.7442 59.4796 58.5185C59.2253 58.2868 58.7306 58.0103 57.995 57.6868C57.2375 57.3552 56.6974 57.0149 56.3798 56.6612C55.9971 56.2419 55.8049 55.6981 55.8049 55.0275C55.8049 54.2763 56.1045 53.6515 56.6979 53.1534C57.2925 52.6544 58.0571 52.4043 58.9954 52.4043C59.7146 52.4043 60.3579 52.5453 60.9295 52.8286V54.2864C60.3332 53.8559 59.6513 53.641 58.8766 53.641C58.397 53.641 58.0117 53.7606 57.7251 53.9935C57.4352 54.231 57.2895 54.5344 57.2895 54.905C57.2895 55.3057 57.4117 55.6171 57.6534 55.8399C57.8678 56.0464 58.3231 56.2977 59.0105 56.5907C59.783 56.9146 60.3412 57.2499 60.6815 57.5932C61.1221 58.0275 61.3454 58.5806 61.3454 59.2524ZM70.1951 57.166C70.1951 56.0078 69.9333 55.1228 69.4087 54.516C68.9026 53.9327 68.1918 53.641 67.2803 53.641C66.3806 53.641 65.658 53.936 65.115 54.5265C64.5455 55.1559 64.2618 56.0464 64.2618 57.2012C64.2618 58.2839 64.5333 59.1332 65.0764 59.7396C65.6278 60.3498 66.3621 60.6549 67.2803 60.6549C68.2341 60.6549 68.9614 60.3452 69.4608 59.7283C69.9501 59.1249 70.1951 58.2717 70.1951 57.166ZM71.6827 57.1144C71.6827 58.5562 71.2723 59.7145 70.4595 60.5823C69.6483 61.4539 68.5522 61.8894 67.1746 61.8894C65.8153 61.8894 64.7344 61.4539 63.9417 60.5823C63.1662 59.7426 62.7755 58.6335 62.7755 57.2541C62.7755 55.6805 63.219 54.4669 64.099 53.6053C64.9169 52.8064 66.0134 52.4039 67.3856 52.4039C68.7352 52.4039 69.7872 52.8244 70.5451 53.6574C71.2992 54.495 71.6827 55.6481 71.6827 57.1144ZM78.0634 49.552C77.7788 49.3943 77.4624 49.3141 77.102 49.3141C76.0877 49.3141 75.585 49.9524 75.585 51.2314V52.6255H77.705V53.8525H75.585V61.6725H74.1351V53.8521H72.5967V52.6251H74.1351V51.1588C74.1351 50.163 74.4406 49.3821 75.0604 48.8189C75.5917 48.3296 76.2421 48.0867 77.0143 48.0867C77.4624 48.0867 77.8107 48.1404 78.0634 48.2445V49.5516V49.552ZM83.7793 61.5814C83.4373 61.7778 82.9811 61.8748 82.4179 61.8748C80.8397 61.8748 80.0503 60.9847 80.0503 59.205V53.8538H78.4985V52.6251H80.0503V50.4178C80.5124 50.2721 80.9937 50.1131 81.5015 49.9486V52.6251H83.7793V53.8538H81.5015V58.9587C81.5015 59.5651 81.6005 59.9994 81.8078 60.2507C82.0176 60.5105 82.3596 60.6381 82.8422 60.6381C83.2027 60.6381 83.5145 60.5416 83.7793 60.3464V61.5814Z" fill="#252B33"/>
<path d="M5.49719 96.9815C5.49719 97.6907 5.24436 98.3037 4.73333 98.8216C4.22355 99.3382 3.60513 99.5979 2.87937 99.5979C2.17041 99.5979 1.56718 99.3382 1.07296 98.8216C0.578323 98.3037 0.332031 97.6907 0.332031 96.9815C0.332031 96.2521 0.578323 95.6373 1.07296 95.1279C1.56718 94.6168 2.17041 94.3637 2.87937 94.3637C3.60513 94.3637 4.22355 94.6201 4.73333 95.1384C5.24436 95.6558 5.49719 96.271 5.49719 96.9815ZM37.9196 99.065H33.1971L16.0538 72.5898C15.6413 71.9298 15.2933 71.2315 15.0145 70.5051H14.8735C14.9956 71.2138 15.0579 72.7355 15.0579 75.067V99.065H11.1648V65.8492H16.2177L32.8483 91.9072C33.5106 92.9412 33.963 93.6814 34.1925 94.1279H34.2851C34.1306 93.172 34.0503 91.5429 34.0503 89.2437V65.8492H37.9201V99.065H37.9196ZM62.8788 99.065H45.2745V65.8492H62.1146V69.3691H49.1646V80.4182H61.1646V83.9394H49.1642V95.5438H62.8784V99.065H62.8788ZM89.5813 69.3695H80.0135V99.0654H76.1214V69.3695H66.536V65.8479H89.5817V69.3695H89.5813Z" fill="#252B33"/>
<path d="M36.602 8.47851C40.3574 19.9636 41.7802 40.4522 52.7632 40.4522C53.5991 40.4522 54.4438 40.3702 55.2919 40.2087C45.3083 37.8811 44.1249 17.6155 38.033 7.12085C37.5471 7.56403 37.0698 8.01669 36.6016 8.47851" fill="#252B33"/>
<path d="M38.0312 7.12061C44.1236 17.6153 45.3065 37.8809 55.2902 40.2086C56.0745 40.0647 56.8605 39.8467 57.6481 39.5718C48.6871 35.1815 46.21 15.5019 39.2914 6.02808C38.8643 6.38427 38.4442 6.74864 38.0312 7.12103" fill="#252B33"/>
<path d="M46.8096 0.878956C45.9754 0.878956 45.1286 0.960916 44.2792 1.12238C42.0568 1.5412 39.7991 2.49809 37.5234 3.94593C38.1451 4.55942 38.7365 5.26139 39.293 6.02774C41.6076 4.10698 43.907 2.68783 46.1982 1.83462C47.0341 1.52175 47.8961 1.2822 48.774 1.11869C48.1315 0.957139 47.4718 0.876602 46.8096 0.878956Z" fill="#252B33"/>
<path d="M64.6427 35.5246C65.5973 34.7619 66.5168 33.956 67.398 33.1096C63.5822 21.6778 62.2163 0.89624 51.1563 0.89624C50.3653 0.89624 49.5675 0.970004 48.7715 1.11754C58.8453 3.62307 60.1361 25.541 64.6431 35.5246" fill="#252B33"/>
<path d="M48.7729 1.11804C48.1305 0.956705 47.4708 0.876306 46.8086 0.878715L51.1577 0.894695C50.3667 0.894695 49.569 0.968459 48.7729 1.11763" fill="#252B33"/>
<path d="M64.4492 37.9532C64.017 37.5409 63.6062 37.0885 63.2021 36.6057C61.3418 37.9228 59.4887 38.922 57.6465 39.5719C58.3041 39.8948 59.0002 40.132 59.7182 40.2776C60.299 40.3952 60.8903 40.4537 61.4828 40.4522C63.5491 40.4522 65.1832 40.2075 66.5743 39.5403C65.808 39.1264 65.106 38.5896 64.4492 37.9532Z" fill="#252B33"/>
<path d="M46.1953 1.83647C55.2184 6.55578 56.0027 27.9279 63.2024 36.6058C63.6926 36.2597 64.1722 35.8992 64.641 35.5248C60.134 25.5412 58.8449 3.62157 48.7732 1.11768C47.8949 1.28298 47.0325 1.52347 46.1953 1.83647Z" fill="#252B33"/>
<path d="M39.2891 6.02829C46.2073 15.5022 48.6848 35.1813 57.6458 39.572C59.4881 38.922 61.3416 37.9229 63.2015 36.6058C56.0017 27.9278 55.2174 6.55574 46.1943 1.83643C43.9035 2.688 41.6036 4.10715 39.2891 6.02792" fill="#252B33"/>
<path d="M32.1739 8.20172C31.0895 10.6536 29.9818 13.8763 28.6426 18.0829C31.3059 14.3307 33.9606 11.0974 36.6006 8.47876C36.2371 7.36081 35.8465 6.33017 35.4257 5.41138C34.2923 6.28234 33.207 7.21397 32.1743 8.20214" fill="#252B33"/>
<path d="M36.3883 4.7041C36.0644 4.93465 35.7441 5.17049 35.4277 5.4114C35.8486 6.32979 36.2371 7.36042 36.601 8.47839C37.07 8.01741 37.5471 7.56479 38.0321 7.12068C37.521 6.2425 36.978 5.43151 36.3883 4.7041Z" fill="#252B33"/>
<path d="M37.5208 3.94646C37.1366 4.19059 36.7579 4.4431 36.3848 4.70378C36.9749 5.43118 37.5175 6.24218 38.0306 7.12203C38.4427 6.74822 38.8628 6.38338 39.2907 6.02787C38.7346 5.26194 38.1433 4.55951 37.5212 3.94604" fill="#252B33"/>
<path d="M99.0698 0.00450785C93.9666 19.6854 83.3077 35.4928 74.371 39.4781H74.3547C74.1918 39.5519 74.0307 39.6191 73.8717 39.6842C73.8494 39.6978 73.8297 39.6994 73.8129 39.7072C73.7659 39.726 73.7227 39.7408 73.6753 39.7596C73.6535 39.7727 73.6337 39.7773 73.6136 39.785C73.538 39.8121 73.4642 39.8346 73.3908 39.8641C73.3589 39.8776 73.3286 39.8859 73.2984 39.8965C73.2623 39.9104 73.2254 39.9225 73.1876 39.9326C73.1541 39.9457 73.1188 39.9555 73.0802 39.9703C73.0483 39.9834 73.0148 39.9891 72.985 40.0022C72.9195 40.0211 72.8595 40.0371 72.794 40.0596C72.7667 40.0596 72.742 40.0744 72.7135 40.0817C72.6732 40.0949 72.6274 40.1043 72.5842 40.1166C72.5544 40.1297 72.5292 40.1342 72.4973 40.1408C72.452 40.1539 72.4017 40.1662 72.3563 40.1768L72.1855 40.2145C72.5947 40.3654 73.0278 40.4415 73.4638 40.4391C81.938 40.4391 90.4815 25.2534 104.619 0H99.0677L99.0698 0.00450785Z" fill="#252B33"/>
<path d="M26.8034 1.67775C26.8087 1.67775 26.8157 1.66464 26.8185 1.66464C26.8255 1.66464 26.8357 1.66464 26.839 1.65153H26.8497C26.8964 1.63513 26.9398 1.61669 26.987 1.59907C26.9993 1.59907 27.0054 1.59907 27.014 1.58596C27.0259 1.58596 27.0374 1.57243 27.0492 1.57079C27.0992 1.55481 27.1497 1.53596 27.1968 1.51875H27.2045C27.3168 1.48514 27.4209 1.44334 27.5295 1.40441C27.5451 1.40441 27.5599 1.3913 27.5783 1.3913C27.6234 1.37654 27.6705 1.36056 27.7176 1.34991C27.7393 1.33638 27.7611 1.33638 27.7811 1.32942C27.8295 1.31508 27.8766 1.29868 27.9217 1.28803C27.9422 1.28803 27.9602 1.2745 27.9754 1.27328C28.1311 1.23025 28.2856 1.19009 28.4413 1.15279C28.463 1.15279 28.4815 1.13927 28.5048 1.13804C28.5499 1.12492 28.5922 1.11755 28.6409 1.11099C28.661 1.09788 28.6844 1.09788 28.7077 1.09091C28.7528 1.0778 28.7967 1.07616 28.8454 1.0655H28.877C28.9712 1.04624 29.0667 1.03067 29.1606 1.01305H29.2175C29.2626 0.999935 29.3027 0.998298 29.3482 0.990098C29.3728 0.990098 29.3982 0.976989 29.422 0.976989C29.4638 0.976989 29.5056 0.963464 29.5474 0.958135C29.5695 0.958135 29.5908 0.958135 29.6163 0.944614C29.715 0.9315 29.817 0.926171 29.9211 0.917975C29.6215 0.887858 29.3207 0.87213 29.0196 0.87085C19.4769 0.87085 6.32871 18.5772 0.40625 41.5074H1.54755C3.4429 38.1273 5.14563 34.9296 6.70286 31.9278C10.8505 15.6861 19.299 4.60992 26.8037 1.67529" fill="#252B33"/>
<path d="M32.1758 8.20166C33.2083 7.2135 34.2935 6.28186 35.4267 5.4109C35.1963 4.89827 34.9378 4.39864 34.6526 3.91431C33.7797 4.97363 32.9819 6.37149 32.1758 8.20166Z" fill="#252B33"/>
<path d="M32.9588 1.81212C33.5817 2.33503 34.1402 3.05383 34.6513 3.91565C34.8123 3.71771 34.975 3.53494 35.1438 3.36405C34.4349 2.70222 33.6694 2.15923 32.8379 1.75024C32.8715 1.76868 32.9051 1.78385 32.9399 1.7986C32.9399 1.7986 32.953 1.81171 32.9588 1.81171" fill="#252B33"/>
<path d="M6.70117 31.9297C15.4029 15.1618 19.5256 4.54949 26.8025 1.67676C19.2994 4.6134 10.8492 15.6896 6.70159 31.9297" fill="#252B33"/>
<path d="M35.143 3.36353C34.9737 3.53606 34.8131 3.71719 34.6504 3.91513C34.9358 4.39948 35.1948 4.89894 35.4261 5.41132C35.7425 5.17053 36.0627 4.93486 36.3867 4.7044C36.0039 4.22894 35.5883 3.78089 35.143 3.36353Z" fill="#252B33"/>
<path d="M10.6506 41.4337C10.5969 41.4473 10.5432 41.4473 10.4928 41.4526H10.4629C10.4174 41.4526 10.3703 41.4661 10.3285 41.4661H10.3068C10.1978 41.4792 10.0904 41.4792 9.9867 41.4874H9.95312C18.7602 41.2411 22.7857 36.8316 24.7839 30.4363C26.3022 25.5879 27.5488 21.5034 28.6418 18.0762C24.9527 23.2684 21.2473 29.4576 17.5218 36.3911C15.7252 39.7327 12.9935 41.1285 10.6502 41.4276" fill="#252B33"/>
<path d="M10.6489 41.4306C12.9917 41.1323 15.7234 39.7382 17.52 36.3941C21.2455 29.4628 24.9531 23.2718 28.638 18.0796C29.9789 13.8709 31.0853 10.6499 32.1713 8.198C24.8256 15.1901 17.4512 26.8162 10.6484 41.4274" fill="#252B33"/>
<path d="M6.70025 31.9304C5.14301 34.9318 3.44026 38.1295 1.54492 41.51H4.86475C5.28401 38.2835 5.89693 35.085 6.70025 31.9321" fill="#252B33"/>
<path d="M29.6133 0.953115C29.5863 0.953115 29.5662 0.966228 29.5428 0.966228C29.5026 0.979753 29.4608 0.979753 29.4186 0.983853C29.394 0.983853 29.3703 0.983853 29.3449 0.997374C29.2998 1.01049 29.258 1.01172 29.2141 1.02032C29.1941 1.02032 29.174 1.02032 29.1572 1.03344C29.0617 1.04942 28.9678 1.06704 28.8744 1.08302H28.8425C28.7937 1.09655 28.7498 1.10351 28.7048 1.11007C28.6814 1.12319 28.658 1.12319 28.6359 1.12851C28.5908 1.14204 28.5458 1.14736 28.5019 1.15556C28.4785 1.16867 28.4601 1.16867 28.4384 1.1699C28.2827 1.2076 28.1281 1.24776 27.9725 1.29079C27.956 1.29079 27.9388 1.30391 27.9187 1.30678C27.872 1.31989 27.8265 1.33341 27.7778 1.34817C27.7577 1.36169 27.7344 1.36169 27.7143 1.36702C27.6675 1.37994 27.6211 1.39374 27.5749 1.40841C27.5569 1.40841 27.5417 1.42152 27.525 1.42152C27.4176 1.46168 27.3118 1.50225 27.2012 1.53545C27.1545 1.5502 27.1041 1.56905 27.0537 1.58667C27.0336 1.59979 27.0156 1.60306 26.9922 1.61208C26.9451 1.62683 26.8979 1.64568 26.8545 1.6629C26.8381 1.67642 26.8209 1.67765 26.8094 1.68462C19.5326 4.55736 15.4095 15.1692 6.70813 31.9371C5.9041 35.0901 5.2913 38.2887 4.87305 41.5155H5.33897C6.65118 41.5155 7.02164 41.502 8.53133 41.502H9.99474C10.0984 41.4889 10.2058 41.4889 10.3144 41.4803H10.3349C10.38 41.4803 10.425 41.4671 10.4689 41.4671H10.5009C10.5492 41.4671 10.6046 41.454 10.6582 41.4483C17.461 26.8371 24.835 15.211 32.1811 8.21892C32.9884 6.38917 33.7847 4.99131 34.6563 3.93362C34.1465 3.07221 33.5884 2.35178 32.9651 1.82887C32.9651 1.82887 32.9483 1.82887 32.947 1.81534C32.9114 1.801 32.8782 1.78338 32.843 1.76617C32.8077 1.74691 32.7774 1.73215 32.7405 1.71371C32.7062 1.69929 32.6728 1.68315 32.6401 1.66536C32.5967 1.65183 32.5614 1.63298 32.5229 1.61577C32.4909 1.60225 32.4627 1.58872 32.4307 1.57561C32.3658 1.55041 32.3016 1.52349 32.2381 1.49488C32.2094 1.48176 32.1828 1.47439 32.1561 1.46414C32.1074 1.44639 32.0591 1.42726 32.0115 1.40677C31.9881 1.39324 31.9615 1.39038 31.9344 1.38095C31.866 1.358 31.7988 1.33382 31.7353 1.31251H31.7185C31.6414 1.28711 31.566 1.26826 31.4873 1.24695C31.4689 1.23342 31.4537 1.23342 31.4353 1.23055C31.3664 1.21211 31.3062 1.19367 31.241 1.17605C31.2247 1.17605 31.2091 1.16253 31.196 1.16253C31.0357 1.12147 30.874 1.0862 30.7111 1.05679C30.6948 1.05679 30.678 1.04327 30.6612 1.04327C30.5918 1.02949 30.5219 1.01828 30.4518 1.00967C30.4345 0.996556 30.4247 0.996556 30.41 0.996556C30.3274 0.983908 30.2446 0.973115 30.1616 0.96418H30.1182C30.051 0.951067 29.9891 0.949837 29.9272 0.942871C29.8215 0.955985 29.7211 0.961721 29.6219 0.971146" fill="#252B33"/>
<path d="M79.1337 10.9C77.4597 16.2631 76.1034 20.6873 74.9238 24.3277C79.5177 18.006 84.0427 10.0534 88.352 0.876221C83.3255 2.45479 80.644 6.06842 79.1337 10.9Z" fill="#252B33"/>
<path d="M75.0719 39.1427C74.8373 39.2624 74.6023 39.3759 74.3711 39.4779C83.3077 35.4926 93.9666 19.6852 99.0698 0.00439453H98.0354C86.3111 20.9486 82.5398 34.9697 75.0719 39.1427Z" fill="#252B33"/>
<path d="M69.2362 37.3836C71.1804 35.0104 72.7645 30.9763 74.9265 24.3276C72.4321 27.7536 69.9219 30.698 67.4095 33.0999C67.4095 33.113 67.4095 33.113 67.3965 33.1212C67.9441 34.7637 68.5459 36.2132 69.2316 37.3832" fill="#252B33"/>
<path d="M69.2336 37.3835C68.5718 38.1908 67.871 38.8064 67.0918 39.2621C66.921 39.3613 66.7481 39.4547 66.5723 39.5407C67.4183 39.9987 68.3436 40.2903 69.2991 40.4001C69.4464 40.4149 69.5924 40.4284 69.7447 40.439H69.772C69.8404 40.439 69.9122 40.439 69.986 40.4522H70.7137C70.7401 40.4522 70.7682 40.4522 70.7951 40.439C70.8471 40.439 70.9021 40.439 70.9558 40.4255H71.0351C71.0901 40.4255 71.1505 40.4124 71.2093 40.4067H71.2227C71.2403 40.4067 71.2588 40.3935 71.276 40.3935C71.3377 40.38 71.4023 40.3747 71.4623 40.3652H71.5177C71.5857 40.3522 71.6566 40.3436 71.7267 40.3304H71.7607C71.9013 40.3034 72.0385 40.2772 72.1778 40.2419C71.0246 39.8198 70.0591 38.824 69.2282 37.4061" fill="#252B33"/>
<path d="M52.7617 40.4523C53.5981 40.4523 54.4424 40.3704 55.2909 40.2077C56.0752 40.0655 56.8612 39.8471 57.6488 39.5725C58.3056 39.8951 59.0013 40.1323 59.7185 40.2782C60.2997 40.3957 60.8918 40.454 61.4852 40.4523H52.7617Z" fill="#252B33"/>
<path d="M61.4824 40.452C63.5475 40.452 65.1828 40.2073 66.5722 39.54C67.4178 39.9983 68.3435 40.2903 69.2991 40.4003C69.4463 40.4147 69.5924 40.4282 69.7447 40.4389H69.772C69.8404 40.4389 69.9122 40.4389 69.986 40.4524H70.237H61.4766H61.4824V40.452Z" fill="#252B33"/>
<path d="M70.2441 40.4523H70.7217C70.7502 40.4523 70.7767 40.4523 70.8039 40.4391C70.856 40.4391 70.9105 40.4391 70.9663 40.4256H71.0457C71.1006 40.4256 71.1606 40.4125 71.2181 40.4071H71.2328C71.2504 40.4071 71.2676 40.394 71.2853 40.394C71.347 40.3805 71.4112 40.3752 71.4707 40.3653C71.4913 40.3653 71.5073 40.3653 71.5287 40.3522C71.5971 40.3391 71.668 40.3321 71.7385 40.319H71.772C71.9126 40.292 72.0498 40.2653 72.1888 40.2305C72.5983 40.3814 73.0314 40.4575 73.4674 40.4551L70.2462 40.4682L70.2441 40.4523Z" fill="#252B33"/>
<path d="M67.4017 33.1217V33.1082C66.5205 33.9546 65.6015 34.7604 64.6468 35.5231C64.1772 35.897 63.6972 36.2575 63.207 36.6042C63.6107 37.0869 64.0216 37.5394 64.4542 37.952C65.1109 38.5885 65.813 39.1249 66.5788 39.5388C66.7534 39.4527 66.9271 39.3593 67.0971 39.2605C67.8776 38.8048 68.5784 38.1897 69.2402 37.382C68.5549 36.212 67.9536 34.7625 67.4051 33.12" fill="#252B33"/>
<path d="M94.7605 0.00439453H89.5557C89.2745 0.017918 89.0013 0.0273435 88.7315 0.0445552C88.6044 0.317894 88.4734 0.591234 88.3475 0.866211C84.0391 10.0434 79.5137 17.996 74.9199 24.3176C72.7596 30.9659 71.1742 35 69.2305 37.3732C70.0614 38.7911 71.0286 39.7881 72.178 40.2107C72.2116 40.1971 72.2389 40.1971 72.2687 40.1901H72.2875C72.3077 40.1901 72.3291 40.1771 72.3509 40.1771C72.3975 40.1635 72.4483 40.1553 72.4953 40.141C72.5251 40.1275 72.5502 40.1262 72.5804 40.1164C72.6245 40.1033 72.6694 40.0938 72.7097 40.0832C72.7366 40.0697 72.7634 40.0656 72.7898 40.0603C72.857 40.0385 72.9174 40.0225 72.9812 40.0025C73.011 39.9894 73.0433 39.9779 73.0769 39.9701C73.1138 39.957 73.1503 39.9476 73.1843 39.9316C73.2225 39.9181 73.2611 39.9111 73.2947 39.8967C73.3245 39.8832 73.3564 39.875 73.3849 39.8631C73.4604 39.8361 73.5339 39.8136 73.6094 39.7841C73.63 39.7841 73.6501 39.7652 73.6719 39.7611C73.7168 39.7423 73.7638 39.7275 73.8091 39.7074C73.8255 39.6939 73.8461 39.6927 73.8675 39.6857C74.0253 39.6201 74.1877 39.5529 74.3505 39.4796H74.3673C74.6035 39.3745 74.8364 39.2627 75.0664 39.1443C82.536 34.9713 86.3073 20.9503 98.0316 0.00603373H94.7571L94.7609 0.00439453H94.7605Z" fill="#252B33"/>
<path d="M29.918 0.924884C29.9364 0.924884 29.9532 0.924884 29.9712 0.937998C30.0167 0.937998 30.0622 0.937998 30.1073 0.952752H30.1523C30.2347 0.965866 30.3167 0.973243 30.4007 0.985128C30.4159 0.985128 30.4294 0.985128 30.4425 0.998241C30.5113 1.01136 30.5818 1.02283 30.6519 1.03307C30.6671 1.03307 30.6872 1.0466 30.704 1.0466C30.865 1.07856 31.0293 1.11216 31.1867 1.15355C31.2014 1.15355 31.217 1.16708 31.2301 1.16708C31.2974 1.18306 31.3576 1.20314 31.4248 1.22199C31.4453 1.22199 31.4596 1.23511 31.4781 1.23838C31.5572 1.25846 31.6309 1.27854 31.7076 1.30395C31.7113 1.30395 31.7157 1.30395 31.7248 1.31707C31.7904 1.33715 31.8571 1.36256 31.9256 1.38551C31.9531 1.39862 31.978 1.40436 32.003 1.41091C32.0502 1.4314 32.1022 1.45107 32.1473 1.46992C32.1739 1.46992 32.2006 1.48877 32.2293 1.49861C32.2911 1.52648 32.3563 1.55188 32.4202 1.57852C32.4538 1.59205 32.4821 1.60721 32.5145 1.61909C32.5513 1.63794 32.5895 1.65516 32.6296 1.66827C32.6632 1.68466 32.7001 1.70187 32.7321 1.71663C32.7673 1.73589 32.8005 1.75023 32.8345 1.76908C33.6656 2.17807 34.4315 2.72269 35.1405 3.3833C35.3943 3.11599 35.6676 2.86779 35.958 2.64073C34.4078 1.54082 32.6517 0.913818 30.6253 0.913818C30.3904 0.913818 30.156 0.927343 29.918 0.944964" fill="#252B33"/>
<path d="M35.1406 3.36358C35.586 3.78094 36.0016 4.22899 36.3843 4.70444C36.757 4.44288 37.1357 4.1901 37.5202 3.94632C37.0379 3.46059 36.5149 3.01706 35.9569 2.62061C35.6665 2.84723 35.3936 3.09546 35.1406 3.36317" fill="#252B33"/>
<path d="M29.9176 0.924476C30.1553 0.904392 30.3901 0.89579 30.6249 0.89579C32.651 0.89579 34.4074 1.52279 35.9577 2.62106C37.5936 1.33018 39.5709 0.879395 42.318 0.879395H29.0156C29.323 0.879395 29.6225 0.897838 29.9176 0.924476Z" fill="#252B33"/>
<path d="M42.3213 0.879395C39.5742 0.879395 37.5969 1.33018 35.9609 2.62106C36.5183 3.01781 37.0408 3.46117 37.5231 3.94637C39.8004 2.49853 42.0565 1.53959 44.281 1.12077C45.1145 0.962256 45.9609 0.881451 46.8094 0.879395H42.3213Z" fill="#252B33"/>
<path d="M74.925 24.3309C76.1063 20.6877 77.4592 16.2647 79.1365 10.9C80.6489 6.06636 83.3249 2.4531 88.3509 0.876178C88.4835 0.60612 88.6089 0.327861 88.7382 0.0549316C80.5444 0.545876 76.7152 4.71399 74.7878 10.8865C71.4177 21.6627 69.3757 28.6481 67.4102 33.0995C69.9208 30.6996 72.4315 27.7531 74.925 24.3309Z" fill="#252B33"/>
<path d="M86.9447 37.5814H86.016V40.4676H85.6375V37.5814H84.7051V37.238H86.9443V37.5814H86.9447ZM90.7466 40.4668H90.3698V38.2981C90.3698 38.1272 90.3828 37.9178 90.4004 37.6711C90.3614 37.8187 90.3295 37.9211 90.3001 37.9867L89.2002 40.4668H89.016L87.9136 38.0051C87.8809 37.9367 87.849 37.8256 87.8142 37.6715H87.8008C87.8142 37.8015 87.8184 38.0117 87.8184 38.3034V40.4672H87.4562V37.2375H87.956L88.9464 39.4915C89.0215 39.6607 89.0685 39.7914 89.0924 39.8787H89.1067C89.1721 39.7009 89.2263 39.5685 89.2624 39.4812L90.2733 37.2375H90.7491V40.4668H90.7466Z" fill="#252B33"/>
</g>
<defs>
<clipPath id="clip0">
<rect width="104.91" height="100" fill="white"/>
</clipPath>
</defs>
</svg>
