<svg width="112" height="100" viewBox="0 0 112 100" fill="none" xmlns="http://www.w3.org/2000/svg">
<path d="M112 49.7072C112 42.315 102.743 35.3095 88.5496 30.9652C91.8249 16.4993 90.3692 4.99022 83.9551 1.30551C82.4767 0.441191 80.748 0.031778 78.8602 0.031778V5.10395C79.9064 5.10395 80.748 5.30866 81.4531 5.69532C84.5465 7.46945 85.8884 14.2248 84.8422 22.9134C84.592 25.0515 84.1825 27.3032 83.6821 29.6005C79.2241 28.5087 74.3566 27.6672 69.239 27.1213C66.1684 22.9134 62.9841 19.0922 59.777 15.7487C67.1919 8.8569 74.1519 5.08121 78.8829 5.08121V0.0090332C72.628 0.0090332 64.4397 4.46709 56.1605 12.2004C47.8813 4.51258 39.693 0.100014 33.4381 0.100014V5.17218C38.1463 5.17218 45.1291 8.92514 52.544 15.7714C49.3597 19.115 46.1754 22.9134 43.1503 27.1213C38.0099 27.6672 33.1424 28.5087 28.6843 29.6232C28.1612 27.3487 27.7745 25.1424 27.5016 23.0271C26.4326 14.3385 27.7518 7.58317 30.8224 5.78631C31.5047 5.37689 32.3918 5.19493 33.4381 5.19493V0.122759C31.5275 0.122759 29.7989 0.532172 28.2977 1.39649C21.9063 5.0812 20.4733 16.5675 23.7714 30.9879C9.6239 35.355 0.412109 42.3378 0.412109 49.7072C0.412109 57.0994 9.66939 64.1049 23.8624 68.4492C20.5871 82.9152 22.0428 94.4242 28.4569 98.1089C29.9353 98.9732 31.664 99.3827 33.5746 99.3827C39.8295 99.3827 48.0177 94.9246 56.297 87.1912C64.5762 94.8791 72.7645 99.2917 79.0194 99.2917C80.93 99.2917 82.6586 98.8823 84.1598 98.0179C90.5512 94.3332 91.9841 82.8469 88.6861 68.4265C102.788 64.0822 112 57.0766 112 49.7072ZM82.3857 34.5362C81.5441 37.4703 80.4978 40.4954 79.3151 43.5205C78.3825 41.7009 77.4045 39.8813 76.3355 38.0617C75.2892 36.2421 74.1747 34.468 73.0602 32.7393C76.29 33.217 79.4061 33.8083 82.3857 34.5362ZM71.9684 58.7598C70.1943 61.8304 68.3747 64.7418 66.4868 67.4484C63.0978 67.7441 59.6633 67.9033 56.206 67.9033C52.7715 67.9033 49.337 67.7441 45.9707 67.4712C44.0828 64.7645 42.2405 61.8759 40.4663 58.828C38.7377 55.8484 37.1683 52.8233 35.7353 49.7754C37.1455 46.7276 38.7377 43.6797 40.4436 40.7001C42.2177 37.6295 44.0373 34.7182 45.9252 32.0115C49.3142 31.7158 52.7487 31.5566 56.206 31.5566C59.6405 31.5566 63.075 31.7158 66.4413 31.9887C68.3292 34.6954 70.1715 37.584 71.9456 40.6319C73.6743 43.6115 75.2437 46.6366 76.6766 49.6845C75.2437 52.7323 73.6743 55.7802 71.9684 58.7598ZM79.3151 55.8029C80.5433 58.8508 81.5896 61.8986 82.4539 64.8555C79.4743 65.5833 76.3355 66.1975 73.0829 66.6751C74.1974 64.9237 75.3119 63.1269 76.3582 61.2845C77.4045 59.4649 78.3825 57.6225 79.3151 55.8029ZM56.2515 80.072C54.1362 77.8885 52.0209 75.4547 49.9283 72.7936C51.9754 72.8845 54.0679 72.9528 56.1833 72.9528C58.3213 72.9528 60.4366 72.9073 62.5064 72.7936C60.4593 75.4547 58.344 77.8885 56.2515 80.072ZM39.3291 66.6751C36.0993 66.1975 32.9832 65.6061 30.0036 64.8782C30.8451 61.9441 31.8914 58.919 33.0742 55.8939C34.0067 57.7135 34.9848 59.5331 36.0538 61.3527C37.1228 63.1724 38.2146 64.9465 39.3291 66.6751ZM56.1378 19.3424C58.2531 21.526 60.3684 23.9597 62.4609 26.6209C60.4138 26.5299 58.3213 26.4617 56.206 26.4617C54.068 26.4617 51.9527 26.5071 49.8828 26.6209C51.9299 23.9597 54.0452 21.526 56.1378 19.3424ZM39.3063 32.7393C38.1918 34.4907 37.0773 36.2876 36.031 38.1299C34.9848 39.9495 34.0067 41.7692 33.0742 43.5888C31.8459 40.5409 30.7996 37.4931 29.9353 34.5362C32.9149 33.8311 36.0538 33.217 39.3063 32.7393ZM18.722 61.2163C10.6702 57.7818 5.46154 53.2782 5.46154 49.7072C5.46154 46.1362 10.6702 41.6099 18.722 38.1982C20.6781 37.3566 22.8161 36.606 25.0224 35.9009C26.3189 40.359 28.0247 44.999 30.14 49.7527C28.0475 54.4837 26.3643 59.101 25.0906 63.5363C22.8388 62.8312 20.7008 62.0578 18.722 61.2163ZM30.9589 93.7191C27.8655 91.945 26.5236 85.1897 27.5698 76.501C27.82 74.363 28.2294 72.1112 28.7298 69.8139C33.1879 70.9057 38.0554 71.7473 43.173 72.2932C46.2436 76.501 49.4279 80.3222 52.635 83.6657C45.2201 90.5575 38.2601 94.3332 33.5291 94.3332C32.5055 94.3105 31.6412 94.1058 30.9589 93.7191ZM84.9104 76.3873C85.9794 85.0759 84.6602 91.8313 81.5896 93.6281C80.9072 94.0375 80.0202 94.2195 78.9739 94.2195C74.2656 94.2195 67.2829 90.4666 59.868 83.6203C63.0523 80.2767 66.2366 76.4783 69.2617 72.2704C74.4021 71.7245 79.2696 70.883 83.7276 69.7685C84.2508 72.0657 84.6602 74.272 84.9104 76.3873ZM93.6673 61.2163C91.7112 62.0578 89.5731 62.8084 87.3669 63.5135C86.0704 59.0555 84.3645 54.4155 82.2492 49.6617C84.3418 44.9307 86.0249 40.3135 87.2986 35.8782C89.5504 36.5833 91.6884 37.3566 93.69 38.1982C101.742 41.6327 106.95 46.1362 106.95 49.7072C106.928 53.2782 101.719 57.8045 93.6673 61.2163Z" fill="#252B33"/>
<path d="M56.1816 60.1016C61.9224 60.1016 66.5762 55.4478 66.5762 49.707C66.5762 43.9663 61.9224 39.3125 56.1816 39.3125C50.4409 39.3125 45.7871 43.9663 45.7871 49.707C45.7871 55.4478 50.4409 60.1016 56.1816 60.1016Z" fill="#252B33"/>
</svg>
